<?xml version="1.0" encoding="UTF-8" standalone="no"?>
<!-- Created with Inkscape (http://www.inkscape.org/) -->

<svg
   xmlns:dc="http://purl.org/dc/elements/1.1/"
   xmlns:cc="http://creativecommons.org/ns#"
   xmlns:rdf="http://www.w3.org/1999/02/22-rdf-syntax-ns#"
   xmlns:svg="http://www.w3.org/2000/svg"
   xmlns="http://www.w3.org/2000/svg"
   xmlns:sodipodi="http://sodipodi.sourceforge.net/DTD/sodipodi-0.dtd"
   xmlns:inkscape="http://www.inkscape.org/namespaces/inkscape"
   width="307.59415"
   height="353.09744"
   id="svg2"
   version="1.1"
   inkscape:version="0.48.4 r9939"
   sodipodi:docname="simple window.svg">
  <defs
     id="defs4" />
  <sodipodi:namedview
     id="base"
     pagecolor="#ffffff"
     bordercolor="#666666"
     borderopacity="1.0"
     inkscape:pageopacity="0.0"
     inkscape:pageshadow="2"
     inkscape:zoom="0.49497475"
     inkscape:cx="505.18484"
     inkscape:cy="-127.2668"
     inkscape:document-units="px"
     inkscape:current-layer="layer1"
     showgrid="false"
     inkscape:window-width="1920"
     inkscape:window-height="1003"
     inkscape:window-x="-9"
     inkscape:window-y="-9"
     inkscape:window-maximized="1"
     fit-margin-top="0"
     fit-margin-left="0"
     fit-margin-right="0"
     fit-margin-bottom="0" />
  <metadata
     id="metadata7">
    <rdf:RDF>
      <cc:Work
         rdf:about="">
        <dc:format>image/svg+xml</dc:format>
        <dc:type
           rdf:resource="http://purl.org/dc/dcmitype/StillImage" />
        <dc:title></dc:title>
      </cc:Work>
    </rdf:RDF>
  </metadata>
  <g
     inkscape:label="Layer 1"
     inkscape:groupmode="layer"
     id="layer1"
     transform="translate(-84.810194,-230.67639)">
    <g
       id="g3895"
       transform="matrix(0.50692383,0,0,0.50692383,41.817886,113.74103)">
      <path
         sodipodi:nodetypes="sssccss"
         inkscape:connector-curvature="0"
         id="rect3086"
         d="m 102.20305,886.68998 572,0 c 9.49714,0 17.14285,7.64571 17.14285,17.14285 l 0,23.14286 -606.285706,0 0,-23.14286 c 0,-9.49714 7.645714,-17.14285 17.142856,-17.14285 z"
         style="fill:#000000;fill-opacity:1;stroke:#decd87;stroke-width:0.5;stroke-linecap:butt;stroke-linejoin:miter;stroke-miterlimit:4" />
      <g
         id="g3885">
        <path
           style="fill:none;stroke:#000000;stroke-width:5;stroke-linecap:butt;stroke-linejoin:miter;stroke-miterlimit:4;stroke-opacity:1;stroke-dasharray:none"
           d="m 148.57143,773.79075 c -2.74319,-24.55438 34.67511,-40.28267 45.71428,-15.71428 -1.58415,-29.29344 70.49702,-20.31086 82.85715,25.71428 16.10632,-21.97353 30.55883,-26.58201 42.85714,-8.57142 21.10824,-31.96706 52.65027,-13.95395 61.42857,14.28571 -3.68629,-19.53647 19.87152,-55.64357 55.71429,-34.28572 20.07075,-17.95483 27.77235,-12.14027 38.57143,1.42858 M 490,755.21932 c 9.21493,-15.38447 50.7085,-28.47408 48.57143,12.85715 4.36277,-21.20746 26.46671,-32.12817 42.25859,-16.60946 9.93337,-8.82732 38.92777,-2.86633 43.45569,11.60946"
           id="path3881"
           inkscape:connector-curvature="0"
           sodipodi:nodetypes="ccccccccccc" />
        <path
           style="fill:none;stroke:#000000;stroke-width:5;stroke-linecap:butt;stroke-linejoin:miter;stroke-miterlimit:4;stroke-opacity:1;stroke-dasharray:none"
           d="m 152.85714,672.36218 32.85715,0 -1.42858,-72.85714 47.14286,0 0,30 11.42857,-1.42857 0,-80 62.85715,-1.42857 0,152.85714 27.14285,0 0,-117.14286 55.71429,0 2.85714,21.42857 45.71429,0 0,45.71429 30.97507,-1.47459 m 26,0 30.16778,-1.38255 -1.42857,-42.85715 80,1.42858 0,-24.28572 24.28572,-1.42857"
           id="path3111"
           inkscape:connector-curvature="0"
           sodipodi:nodetypes="cccccccccccccccccccccc" />
        <path
           style="fill:#000000;fill-opacity:1;stroke:#decd87;stroke-width:0.64723271;stroke-linecap:butt;stroke-linejoin:miter;stroke-miterlimit:4;stroke-dasharray:none"
           d="m 114.34375,231 0,651.28125 547,0 0,-651.28125 -547,0 z m 20,18.0625 507.03125,0 0,613.71875 -507.03125,0 0,-613.71875 z"
           id="rect2985"
           inkscape:connector-curvature="0" />
        <path
           style="fill:#000000;fill-opacity:1;stroke:#decd87;stroke-width:0.5040164;stroke-linecap:butt;stroke-linejoin:miter;stroke-miterlimit:4;stroke-dasharray:none"
           d="m 137.21875,253.21875 0,605.21875 342.84375,0 0,-605.21875 z m 22.53125,22.0625 295.75,0 0,560.21875 -295.75,0 z"
           id="rect2985-1-7"
           inkscape:connector-curvature="0"
           sodipodi:nodetypes="cccccccccc" />
        <path
           style="fill:#000000;fill-opacity:1;stroke:#decd87;stroke-width:0.5040164;stroke-linecap:butt;stroke-linejoin:miter;stroke-miterlimit:4;stroke-dasharray:none"
           d="m 485.06936,253.79126 0,605.21875 152.84375,0 0,-605.21875 z m 22.53125,22.0625 105.75,0 0,560.21875 -105.75,0 z"
           id="rect2985-1-7-4"
           inkscape:connector-curvature="0"
           sodipodi:nodetypes="cccccccccc" />
        <path
           style="fill:#ffffff;stroke:#000000;stroke-width:0.46977624px;stroke-linecap:butt;stroke-linejoin:miter;stroke-opacity:1"
           d="m 504.92402,754.71596 -0.94909,48.40365 c -14.30263,-3.25556 -3.60977,-26.99842 -9.01637,-43.6582 -8.74787,-3.61068 -6.68278,-12.59013 -2.06318,-15.0244 6.89075,-3.63104 12.86056,0.80306 12.02864,10.27895 z"
           id="path3089"
           inkscape:connector-curvature="0"
           sodipodi:nodetypes="cccsc" />
        <path
           style="fill:#ffffff;stroke:#000000;stroke-width:0.46977624px;stroke-linecap:butt;stroke-linejoin:miter;stroke-opacity:1"
           d="m 460.42045,754.71596 0.94909,48.40365 c 14.30263,-3.25556 3.60977,-26.99842 9.01637,-43.6582 8.74787,-3.61068 6.68278,-12.59013 2.06318,-15.0244 -6.89075,-3.63104 -12.86056,0.80306 -12.02864,10.27895 z"
           id="path3089-8"
           inkscape:connector-curvature="0"
           sodipodi:nodetypes="cccsc" />
        <path
           style="fill:none;stroke:#000000;stroke-width:5;stroke-linecap:butt;stroke-linejoin:miter;stroke-miterlimit:4;stroke-opacity:1;stroke-dasharray:none"
           d="m 148.49243,375.55997 c 3.07881,-54.26745 57.6586,-37.07109 72.73098,-18.18274 -10.75376,-12.26119 -4.35458,-25.98186 7.07107,-22.22336 -0.86383,-15.3263 36.81609,-25.23597 42.4264,-2.0203 14.52472,-3.31504 29.85302,-8.07653 31.31473,12.12183 11.17027,-14.06873 21.99318,-30.56897 38.3858,-8.08122 31.83534,-14.49266 36.89311,-5.18305 45.45686,1.01015 34.08318,-5.66082 31.062,8.65763 31.31473,21.2132 11.87604,9.91044 24.63674,19.59971 5.05076,37.37565 6.71798,19.63793 -32.07557,24.25986 -55.55839,9.09137 17.94819,22.27443 -8.85825,35.30354 -21.2132,29.29442 1.07018,15.7833 -47.67907,26.14656 -58.58885,-6.06091 -7.53919,16.98368 -30.15959,21.11969 -33.33503,8.08122 -23.80326,10.69715 -39.60446,6.35283 -43.43656,-7.07107 -16.86276,13.21274 -33.63434,3.27677 -25.25381,-18.18275 -23.34562,27.68532 -43.29281,9.94266 -37.37565,-4.04061 z"
           id="path3883"
           inkscape:connector-curvature="0"
           sodipodi:nodetypes="ccccccccccccccccc" />
      </g>
    </g>
  </g>
</svg>
